<svg width="36" height="36" viewBox="0 0 36 36" fill="none" xmlns="http://www.w3.org/2000/svg">
<path d="M24.9231 12.7915H11.0769C10.7615 12.7915 10.5 12.5082 10.5 12.1665C10.5 11.8248 10.7615 11.5415 11.0769 11.5415H24.9231C25.2385 11.5415 25.5 11.8248 25.5 12.1665C25.5 12.5082 25.2385 12.7915 24.9231 12.7915Z" fill="white"/>
<path d="M24.9231 18.625H11.0769C10.7615 18.625 10.5 18.3417 10.5 18C10.5 17.6583 10.7615 17.375 11.0769 17.375H24.9231C25.2385 17.375 25.5 17.6583 25.5 18C25.5 18.3417 25.2385 18.625 24.9231 18.625Z" fill="white"/>
<path d="M24.9231 24.4585H11.0769C10.7615 24.4585 10.5 24.1752 10.5 23.8335C10.5 23.4918 10.7615 23.2085 11.0769 23.2085H24.9231C25.2385 23.2085 25.5 23.4918 25.5 23.8335C25.5 24.1752 25.2385 24.4585 24.9231 24.4585Z" fill="white"/>
</svg>
