<svg width="22" height="24" viewBox="0 0 22 24" fill="none" xmlns="http://www.w3.org/2000/svg">
<path fill-rule="evenodd" clip-rule="evenodd" d="M10.5659 18.6314L5.1933 21.8808C4.76434 22.1269 4.23587 21.9527 3.99939 21.4872V21.4872C3.93097 21.343 3.89406 21.1832 3.8916 21.0204V6.62223C3.8916 3.87623 5.59127 2.77783 8.03713 2.77783H13.7828C16.1541 2.77783 17.9283 3.803 17.9283 6.43916V21.0204C17.9283 21.2801 17.8349 21.5293 17.6685 21.7129C17.5021 21.8966 17.2765 21.9998 17.0412 21.9998C16.8911 21.9972 16.7436 21.9565 16.6101 21.8808L11.2043 18.6314C11.0051 18.5126 10.7651 18.5126 10.5659 18.6314Z" stroke="#67686D" stroke-width="2" stroke-linecap="round" stroke-linejoin="round"/>
</svg>
